<svg width="64" height="64" viewBox="0 0 64 64" fill="none" xmlns="http://www.w3.org/2000/svg">
<path d="M7.18677 19.16L31.1868 29.8267L32.8134 26.1734L8.81343 15.5067L7.18677 19.16V19.16ZM34.0001 57.3334V28H30.0001V57.3334H34.0001ZM32.8134 29.8267L56.8134 19.16L55.1868 15.5067L31.1868 26.1734L32.8134 29.8267V29.8267Z" fill="#F8F8F8"/>
<path d="M8 45.6267V18.3733C8.00008 18.0641 8.08978 17.7615 8.25827 17.5021C8.42675 17.2428 8.66679 17.0378 8.94933 16.912L31.3493 6.95468C31.5541 6.86352 31.7758 6.81641 32 6.81641C32.2242 6.81641 32.4459 6.86352 32.6507 6.95468L55.0507 16.912C55.3332 17.0378 55.5733 17.2428 55.7417 17.5021C55.9102 17.7615 55.9999 18.0641 56 18.3733V45.6267C55.9999 45.936 55.9102 46.2386 55.7417 46.4979C55.5733 46.7573 55.3332 46.9623 55.0507 47.088L32.6507 57.0454C32.4459 57.1365 32.2242 57.1836 32 57.1836C31.7758 57.1836 31.5541 57.1365 31.3493 57.0454L8.94933 47.088C8.66679 46.9623 8.42675 46.7573 8.25827 46.4979C8.08978 46.2386 8.00008 45.936 8 45.6267V45.6267Z" stroke="#F8F8F8" stroke-width="4" stroke-linecap="round" stroke-linejoin="round"/>
<path d="M20 12L43.0507 22.2453C43.3332 22.3711 43.5733 22.5761 43.7417 22.8354C43.9102 23.0948 43.9999 23.3974 44 23.7067V33.3333" stroke="#F8F8F8" stroke-width="4" stroke-linecap="round" stroke-linejoin="round"/>
</svg>
