<svg width="64" height="64" viewBox="0 0 64 64" fill="none" xmlns="http://www.w3.org/2000/svg">
<path d="M60.333 22.575L41.421 3.66C40.367 2.605 38.968 2 37.582 2C36.577 2 35.679 2.317 34.98 2.918L3.76796 29.77C3.23681 30.2212 2.80559 30.7782 2.50186 31.4055C2.19812 32.0328 2.02855 32.7165 2.00396 33.413C1.94796 34.907 2.52596 36.339 3.63196 37.446L26.553 60.369C27.606 61.421 28.969 62 30.391 62C31.12 61.999 31.8402 61.8406 32.5023 61.5354C33.1643 61.2302 33.7527 60.7856 34.227 60.232L61.075 29.017C62.554 27.299 62.228 24.47 60.333 22.575ZM3.82096 33.481C3.83683 33.0347 3.94572 32.5967 4.14065 32.195C4.33558 31.7932 4.61225 31.4366 4.95296 31.148L36.167 4.297C36.529 3.984 37.019 3.818 37.582 3.818C38.476 3.818 39.431 4.24 40.136 4.946L41.775 6.584L6.97096 38.213L4.91796 36.159C4.17296 35.414 3.78296 34.463 3.82096 33.481ZM59.696 27.832L32.85 59.047C32.5478 59.4042 32.1711 59.6909 31.7462 59.887C31.3214 60.0831 30.8588 60.1838 30.391 60.182C29.454 60.182 28.547 59.791 27.837 59.082L15.034 46.277L48.475 13.287L59.048 23.86C60.252 25.065 60.544 26.848 59.696 27.832" fill="#F8F8F8"/>
<path d="M47.837 18.607L22.449 44.521L29.977 52.05L31.118 50.804C31.882 50.978 32.773 50.741 33.415 50.085C34.374 49.104 34.953 47.697 35.315 46.214L54.487 25.258L47.837 18.607M47.421 27.688C46.717 28.001 45.524 28.35 46.681 26.999L47.46 27.604C47.448 27.633 47.433 27.66 47.421 27.688ZM51.854 24.594C51.864 24.585 51.859 24.573 51.865 24.564L52.601 25.3L38.821 40.364C39.362 39.258 39.766 38.11 40.157 36.947C40.331 36.425 40.78 36.545 41.137 36.185C41.864 35.451 42.566 34.704 43.274 33.974C44.17 33.052 44.478 31.829 45.303 30.902C46.19 29.908 47.041 29.338 47.605 28.223C49.263 27.504 50.739 25.657 51.854 24.594ZM24.368 44.512L47.847 20.545L51.6 24.299C51.589 24.305 51.578 24.299 51.568 24.309C50.916 24.929 50.248 25.544 49.555 26.142C49.0339 26.5882 48.4916 27.009 47.93 27.403C48.018 26.993 47.974 26.275 47.392 26.232C46.156 26.135 45.072 28.75 46.72 28.499C46.839 28.48 46.956 28.434 47.074 28.401C46.899 28.721 46.694 29.025 46.48 29.314C45.998 29.971 45.232 30.354 44.685 30.968C43.99 31.746 43.718 32.862 42.974 33.673C42.645 34.031 40.85 36.325 40.212 36.055C40.133 36.024 40.021 36.067 39.994 36.143C39.788 36.736 39.586 37.334 39.382 37.932C39.347 38.037 39.133 38.482 38.923 38.923C39.134 37.953 39.161 36.905 39.054 36.41C39.016 36.235 38.808 36.222 38.709 36.301C37.84 36.996 37.583 38.648 38.051 39.903C37.79 40.171 37.461 40.361 37.04 40.45C36.795 40.315 36.616 40.679 36.862 40.815C36.942 40.858 37.014 40.879 37.089 40.907C36.737 41.192 36.335 41.471 35.903 41.751C36.012 40.003 36.135 36.585 34.155 36.133C34.057 36.111 33.973 36.138 33.927 36.221C33.061 37.743 31.822 40.934 33.614 42.589C33.825 42.784 34.103 42.486 33.892 42.291C32.517 41.021 33.335 38.644 33.835 37.345C34.61 35.339 35.428 39.195 35.47 39.788C35.523 40.53 35.514 41.277 35.475 42.024C32.991 43.58 29.82 45.254 29.577 48.381C29.523 49.087 29.682 49.637 29.966 50.041L29.933 50.078L24.368 44.512M38.548 37.107C38.792 37.603 38.829 38.086 38.657 38.553C38.6135 38.873 38.5122 39.1823 38.358 39.466C38.172 38.664 38.284 37.764 38.548 37.107M30.454 49.51C30.283 49.102 30.146 48.586 30.052 47.938C30.1879 47.2223 30.5311 46.5623 31.039 46.04C32.224 44.57 33.88 43.599 35.449 42.596C35.4024 43.1619 35.331 43.7254 35.235 44.285L30.454 49.51M33.811 48.696C33.5102 49.3011 33.0796 49.8324 32.55 50.252C32.107 50.521 31.723 50.596 31.388 50.508L34.499 47.11C34.299 47.65 34.071 48.182 33.811 48.696M35.865 42.327C36.43 41.957 36.976 41.576 37.476 41.159C37.538 41.107 37.539 41.045 37.52 40.984C37.84 40.96 38.105 40.758 38.323 40.455C38.341 40.484 38.352 40.519 38.373 40.547C38.3927 40.5776 38.4192 40.6034 38.4504 40.6223C38.4816 40.6412 38.5167 40.6527 38.553 40.656L35.74 43.73C35.794 43.247 35.837 42.773 35.865 42.327" fill="#F8F8F8"/>
</svg>
