<svg width="64" height="64" viewBox="0 0 64 64" fill="none" xmlns="http://www.w3.org/2000/svg">
<path d="M4.57153 32L32.0001 4.57141L59.4287 32" stroke="#F8F8F8" stroke-width="3.04762" stroke-linecap="round" stroke-linejoin="round"/>
<path d="M10.6667 25.9047V50.2857C10.6667 51.094 10.9878 51.8691 11.5594 52.4407C12.1309 53.0122 12.9061 53.3333 13.7144 53.3333H22.8572C23.6655 53.3333 24.4407 53.0122 25.0122 52.4407C25.5838 51.8691 25.9048 51.094 25.9048 50.2857V38.0952C25.9048 37.2869 26.2259 36.5117 26.7975 35.9402C27.369 35.3687 28.1442 35.0476 28.9525 35.0476H35.0477C35.856 35.0476 36.6312 35.3687 37.2027 35.9402C37.7742 36.5117 38.0953 37.2869 38.0953 38.0952V50.2857C38.0953 51.094 38.4164 51.8691 38.9879 52.4407C39.5595 53.0122 40.3347 53.3333 41.1429 53.3333H50.2858C51.0941 53.3333 51.8693 53.0122 52.4408 52.4407C53.0123 51.8691 53.3334 51.094 53.3334 50.2857V25.9047" stroke="#F8F8F8" stroke-width="3.04762" stroke-linecap="round" stroke-linejoin="round"/>
</svg>
