<svg width="64" height="64" viewBox="0 0 64 64" fill="none" xmlns="http://www.w3.org/2000/svg">
<path d="M8 32H32V36H8V32ZM4 22H24V26H4V22Z" fill="#F8F8F8"/>
<path d="M59.8379 33.212L53.8379 19.212C53.684 18.8522 53.4277 18.5455 53.1009 18.33C52.7742 18.1145 52.3913 17.9998 51.9999 18H45.9999V14C45.9999 13.4696 45.7892 12.9609 45.4142 12.5858C45.0391 12.2107 44.5304 12 43.9999 12H11.9999V16H41.9999V41.112C41.0886 41.6412 40.291 42.3456 39.6533 43.1845C39.0155 44.0234 38.5501 44.9803 38.2839 46H25.7159C25.2291 44.1147 24.0715 42.4716 22.4599 41.3788C20.8484 40.286 18.8936 39.8184 16.9619 40.0638C15.0303 40.3091 13.2545 41.2505 11.9673 42.7115C10.6801 44.1725 9.96997 46.0529 9.96997 48C9.96997 49.9471 10.6801 51.8275 11.9673 53.2885C13.2545 54.7495 15.0303 55.6909 16.9619 55.9362C18.8936 56.1816 20.8484 55.714 22.4599 54.6212C24.0715 53.5284 25.2291 51.8853 25.7159 50H38.2839C38.719 51.7165 39.714 53.2389 41.1115 54.3263C42.509 55.4138 44.2292 56.0043 45.9999 56.0043C47.7707 56.0043 49.4909 55.4138 50.8884 54.3263C52.2859 53.2389 53.2809 51.7165 53.7159 50H57.9999C58.5304 50 59.0391 49.7893 59.4142 49.4142C59.7892 49.0391 59.9999 48.5304 59.9999 48V34C60 33.7291 59.9449 33.4609 59.8379 33.212V33.212ZM17.9999 52C17.2088 52 16.4355 51.7654 15.7777 51.3259C15.1199 50.8864 14.6072 50.2616 14.3044 49.5307C14.0017 48.7998 13.9225 47.9956 14.0768 47.2196C14.2311 46.4437 14.6121 45.731 15.1715 45.1716C15.7309 44.6122 16.4437 44.2312 17.2196 44.0769C17.9955 43.9225 18.7998 44.0017 19.5307 44.3045C20.2616 44.6072 20.8863 45.1199 21.3258 45.7777C21.7653 46.4355 21.9999 47.2089 21.9999 48C21.9989 49.0605 21.5771 50.0773 20.8272 50.8273C20.0773 51.5772 19.0605 51.9989 17.9999 52V52ZM45.9999 22H50.6799L54.9679 32H45.9999V22ZM45.9999 52C45.2088 52 44.4355 51.7654 43.7777 51.3259C43.1199 50.8864 42.6072 50.2616 42.3044 49.5307C42.0017 48.7998 41.9225 47.9956 42.0768 47.2196C42.2311 46.4437 42.6121 45.731 43.1715 45.1716C43.7309 44.6122 44.4436 44.2312 45.2196 44.0769C45.9955 43.9225 46.7998 44.0017 47.5307 44.3045C48.2616 44.6072 48.8863 45.1199 49.3258 45.7777C49.7653 46.4355 49.9999 47.2089 49.9999 48C49.9989 49.0605 49.5771 50.0773 48.8272 50.8273C48.0773 51.5772 47.0605 51.9989 45.9999 52ZM55.9999 46H53.7159C53.2754 44.2869 52.2788 42.7684 50.8824 41.6825C49.486 40.5967 47.7688 40.0049 45.9999 40V36H55.9999V46Z" fill="#F8F8F8"/>
</svg>
